<?xml version="1.0" encoding="UTF-8"?>
<svg version="1.1" viewBox="0 0 2048 712" width="802" height="279" xmlns="http://www.w3.org/2000/svg">
<path transform="translate(0)" d="m0 0h2048v712h-2048z" fill="#041B4A"/>
<path transform="translate(0)" d="m0 0h2048v712h-2048zm158 32-12 1-21 5-18 8-16 10-13 12-10 10-9 13-9 17-6 18-3 20v529l445 1h1037l315-1 15-2 18-4 18-8 14-8 11-9 15-15 10-15 8-15 6-19 3-20v-528z" fill="#F8F9FA"/>
<path transform="translate(1629,156)" d="m0 0h184l13 1v89h-108v20h108v40l-6 116-1 17-1 38-1 1h-189v-89l57-1h43v-36h-100v-195z" fill="#00CCFE"/>
<path transform="translate(609,156)" d="m0 0h140l24 1v88l-1 1-106 1-1 3v15l107 1 1 1v42l-5 92-1 26-1 50-4 1h-186l-1-1 1-88 6-1h95l-1-34-1-1-99-1v-195z" fill="#F600B1"/>
<path transform="translate(490,156)" d="m0 0h37l30 1 1 97v124l-1 99-1 1h-192l-2-1v-235l1-45h88l1 3v164l1 25h15v-224l1-8z" fill="#F600B1"/>
<path transform="translate(1204,156)" d="m0 0 86 1-8 16-23 45-10 19-15 29 1 9 16 65 18 71 15 60v6l-1 1h-25l-59-1-3-6-19-77-16-64-1 112-2 1h-84l-1-1v-284l1-1h85l1 1 1 79 24-47 10-19 8-14z" fill="#00CCFE"/>
<path transform="translate(807,156)" d="m0 0h157l24 1 1 2v87l-4 2h-53v229l-2 1h-88l-1-1-1-228-47-1-9-1v-90z" fill="#F600B1"/>
<path transform="translate(194,157)" d="m0 0h147l1 18v68l-1 92-1 142-2 1h-165l-2-1v-84l80-1 1-144h-28l-4-1-7-21-19-65z" fill="#F600B1"/>
<path transform="translate(1299,156)" d="m0 0h48l47 1v320l-1 1h-93l-2-1v-320z" fill="#00CCFE"/>
<path transform="translate(1410,157)" d="m0 0h204v26h-3v-2l-16-2-1 11 3 7-1 7-8 14-12 15-8 11-14 9-11 5-10 4h-3l2-4 7-9 4-9 6-8v-7l-1-5 3-6 1-8-2-5-2-3 5 1-4-4-6-3 3-3-5-1v-5l-4-2-3-9v3 11l-4-5-7-6-2-1 5 8-5-2-15-5h-11l5 5-9 1-9 3h-5v2h3v2l-11 6-5 7 6-2-6 8-2 3 6-1 1 3-7 9-3 3 11-2-2 7-3 1v2h4l-1 5h3l2 1 1 5h4l2 4 4 1v3h6l3 2 1-2 5 2 4 4 3 1v2l-7 2-12 2-7 4-7 3-9 4-4 3-9 1-5-5-8-10-5-9v-20l-3-4-8-2-3 3-6 3-3 1z" fill="#00CCFE"/>
<path transform="translate(1611,201)" d="m0 0h2v32l-2 54-4 61-3 45-3 43-2 41-1 1h-29v-3-8l-3-10-2-14-2-10h-3l2-5 5-5 10-9 8-8 9-13 1-3v-7l-5-8-13-11-16-10-11-6-4-1 1-5h-4l-4-6 1-4 1-18 3-13 4-16 5-4 11-7 3-8 8-7 9-8 9-15 14-26z" fill="#00CCFE"/>
<path transform="translate(1410,253)" d="m0 0 5 2 5 4 11 23 7 9 7 6 11-2 8-2 5 1 3 3 5-2 4-3h2l2 6 1 11v14l-3 9v7l-2 2-3 11 3 1-3 10-2 3-4 18-3 6-2 2-1 5-5 1-1 3h-7l-9 2-5-4h-8l-7 5-8 11-5 6h-1z" fill="#00CCFE"/>
<path transform="translate(1519,383)" d="m0 0h9l14 3 14 5-6 11-1 6 2 5-7 12-6 1-7 9-1 5 11 18 7 10 9 8v2h-146l-1-1v-28h7l10-9 10-11 3-4h2l4 6 4 3 3-1 15 1 5 2 7-1 8-8 11-15 9-14 8-11z" fill="#00CCFE"/>
<path transform="translate(807,542)" d="m0 0h25l13 2 8 5 4 5 1 3v14l-5 8-8 5-5 2-19 1v15h-14l-1-1v-58z" fill="#00CCFE"/>
<path transform="translate(889,542)" d="m0 0h25l12 2 6 3 7 8 1 3v12l-4 7-7 6-8 3h-19v16h-14v-59z" fill="#00CCFE"/>
<path transform="translate(1097,542)" d="m0 0h24l13 2 6 3 6 7 2 5v10l-5 10-8 5-6 2h-19v16h-14v-59z" fill="#00CCFE"/>
<path transform="translate(741,542)" d="m0 0h12l3 5 13 28 9 20 2 4v3h-13l-3-4-2-5v-3h-30l-1 5-4 7h-13l1-5 18-40 7-14z" fill="#00CCFE"/>
<path transform="translate(518,542)" d="m0 0h12l3 4 9 21 13 29 2 6h-14l-4-9v-3h-29l-6 12h-13l1-5 17-38 8-16z" fill="#00CCFE"/>
<path transform="translate(1269,542)" d="m0 0h12l3 5 11 23 12 27 1 5h-13l-7-12h-27l-5 12h-14l2-6 11-25 12-27z" fill="#00CCFE"/>
<path transform="translate(674,542)" d="m0 0h10l3 1v59h-13l-1-1v-24l-26 1-1 24h-14v-59h14v23h27v-23z" fill="#00CCFE"/>
<path transform="translate(1417,542)" d="m0 0h39l6 1v10l-2 1h-30v12l28 1v9l-1 1h-27l1 14 32 1v10h-46l-1-1v-58z" fill="#00CCFE"/>
<path transform="translate(1357,541)" d="m0 0h12l12 5 5 4-1 5-5 4-4-1-8-4h-9l-7 3-5 5-2 5v11l4 7 5 4 4 2h10l9-5 5 1 4 4-1 5-8 5-11 3h-7l-13-4-8-6-6-9-2-7v-13l4-9 7-8 6-4z" fill="#00CCFE"/>
<path transform="translate(962,542)" d="m0 0h13l4 5 12 20h2l8-14 7-10 1-1h11l1 2-10 17-11 18-1 3-1 20h-13l-1-1v-18l-3-7-10-17-9-15z" fill="#00CCFE"/>
<path transform="translate(1178,542)" d="m0 0h9l4 1 1 38 1 10 29 1v9l-1 1-20 1h-16l-8-1v-59z" fill="#00CCFE"/>
<path transform="translate(1491,543)" d="m0 0h16l-3 38h-10l-1-1-2-28z" fill="#F600B1"/>
<path transform="translate(820,554)" d="m0 0h19l5 5 1 2v6l-3 5-9 3h-11l-2-1z" fill="#041B4A"/>
<path transform="translate(902,554)" d="m0 0h18l5 4 1 2v8l-4 5-8 2h-10l-2-1z" fill="#041B4A"/>
<path transform="translate(1110,554)" d="m0 0h17l6 4 1 2v8l-4 5-7 2h-11l-2-1z" fill="#041B4A"/>
<path transform="translate(746,556)" d="m0 0 3 3 7 17v3h-19l8-21z" fill="#041B4A"/>
<path transform="translate(523,557)" d="m0 0 3 3 7 17v2h-19l6-16z" fill="#041B4A"/>
<path transform="translate(1274,557)" d="m0 0h2l8 19v3h-18l1-5z" fill="#041B4A"/>
<path transform="translate(1495,588)" d="m0 0h7l4 3 1 5-3 5-2 2h-7l-4-5 1-7z" fill="#F600B1"/>
</svg>
