<?xml version="1.0" standalone="no"?>
<!DOCTYPE svg PUBLIC "-//W3C//DTD SVG 20010904//EN"
 "http://www.w3.org/TR/2001/REC-SVG-20010904/DTD/svg10.dtd">
<svg version="1.0" xmlns="http://www.w3.org/2000/svg"
 width="200.000000pt" height="85.000000pt" viewBox="0 0 200.000000 85.000000"
 preserveAspectRatio="xMidYMid meet">

<g transform="translate(0.000000,85.000000) scale(0.100000,-0.100000)"
fill="#000000" stroke="none">
<path d="M476 828 c-8 -13 -27 -49 -43 -81 -25 -52 -29 -56 -34 -35 -7 22 -7
22 -8 -4 -1 -34 27 -38 54 -8 24 26 59 25 77 -2 13 -19 17 -20 29 -8 13 12 13
16 -3 32 -23 23 -77 23 -94 1 -23 -30 -17 6 11 65 22 48 47 66 58 42 3 -6 4
-5 3 2 -5 23 -34 20 -50 -4z"/>
<path d="M654 794 c-47 -49 -47 -95 1 -155 33 -42 33 -44 14 -51 -11 -4 -18
-12 -15 -17 3 -5 -1 -14 -9 -21 -8 -7 -15 -17 -15 -23 0 -6 6 -3 13 8 8 10 19
15 25 11 7 -4 10 -2 7 6 -3 8 12 25 37 41 44 28 67 33 84 18 5 -6 22 -2 44 9
19 11 29 19 22 20 -7 0 -22 -5 -33 -10 -13 -8 -19 -7 -19 0 0 6 6 13 14 16 8
3 13 11 10 18 -3 7 1 18 8 24 19 15 66 3 73 -19 8 -25 23 -24 46 3 21 23 40
18 20 -6 -9 -11 -8 -18 5 -31 22 -21 68 -13 102 18 17 15 26 18 29 10 6 -18
28 -16 43 2 11 13 10 14 -4 9 -14 -5 -16 2 -16 50 0 55 16 77 27 36 3 -13 14
-20 29 -20 25 0 31 -14 36 -80 2 -25 8 -36 22 -38 15 -3 17 0 11 14 -5 11 -11
44 -14 74 -6 51 -8 55 -34 58 -18 2 -25 7 -20 15 4 7 0 6 -10 -2 -18 -14 -22
-8 -18 32 3 25 -31 22 -48 -5 -8 -13 -10 -23 -4 -25 6 -2 8 -15 5 -29 -3 -19
-9 -23 -26 -19 -18 5 -19 5 -3 -5 24 -16 21 -47 -7 -65 -29 -19 -77 -16 -84 4
-3 10 0 12 12 8 10 -4 15 -3 11 3 -3 6 3 10 14 10 12 0 21 -4 21 -10 0 -5 -5
-10 -12 -10 -6 0 -9 -3 -6 -6 10 -9 48 16 48 31 0 16 -3 17 -64 19 -51 1 -68
26 -41 58 19 22 18 22 -8 -1 -23 -21 -26 -30 -21 -58 7 -37 -5 -43 -24 -13
-15 25 -58 26 -84 3 -29 -26 -22 3 13 55 18 26 39 53 47 60 10 7 11 12 4 12
-6 0 -28 -24 -48 -54 -26 -40 -40 -53 -54 -49 -12 3 -24 -4 -35 -21 -20 -30
-50 -33 -77 -9 -17 15 -18 15 -13 1 4 -9 20 -21 36 -27 39 -13 37 -25 -3 -17
-32 6 -33 6 -10 -9 25 -18 30 -40 6 -31 -8 3 -12 2 -9 -4 3 -6 2 -10 -4 -10
-14 0 -33 38 -26 50 4 6 -3 22 -14 36 -38 48 -23 105 32 129 22 10 26 14 13
15 -10 0 -34 -16 -52 -36z m506 16 c0 -5 -4 -10 -10 -10 -5 0 -10 5 -10 10 0
6 5 10 10 10 6 0 10 -4 10 -10z m-347 -96 c3 -4 1 -16 -5 -28 -7 -11 -12 -24
-13 -28 0 -3 -4 -10 -9 -15 -5 -4 -7 -3 -3 2 3 6 2 17 -3 25 -5 8 -3 21 3 32
12 19 20 22 30 12z"/>
<path d="M335 803 c-8 -12 -8 -41 0 -93 l10 -75 60 4 c58 3 95 21 95 45 0 6
-4 5 -9 -3 -6 -9 -30 -14 -67 -15 l-59 -1 -10 78 c-8 61 -12 74 -20 60z"/>
<path d="M490 797 c-15 -31 -10 -40 18 -35 19 3 19 6 7 33 l-12 30 -13 -28z"/>
<path d="M791 803 c17 -28 5 -41 -19 -20 -22 20 -65 22 -81 3 -9 -11 -7 -12
12 -9 14 3 31 -2 40 -12 20 -20 46 -17 61 7 8 14 7 22 -8 35 -18 17 -18 17 -5
-4z"/>
<path d="M1357 778 c-14 -18 -32 -48 -42 -67 -13 -26 -19 -31 -26 -20 -6 10
-9 4 -9 -18 0 -27 3 -31 18 -26 9 4 23 13 30 20 21 20 58 15 74 -9 14 -21 16
-21 32 -5 10 9 15 25 13 35 -4 16 -5 16 -6 0 -1 -21 -21 -25 -21 -4 0 21 -60
29 -80 11 -9 -8 -20 -15 -24 -15 -9 0 40 88 61 110 13 13 16 13 29 -4 8 -11
14 -15 14 -10 0 12 -21 34 -31 34 -5 0 -19 -15 -32 -32z"/>
<path d="M382 775 c0 -16 2 -22 5 -12 2 9 2 23 0 30 -3 6 -5 -1 -5 -18z"/>
<path d="M896 775 c-19 -29 -14 -45 14 -45 17 0 19 5 13 33 -8 42 -8 42 -27
12z"/>
<path d="M1023 793 c9 -2 23 -2 30 0 6 3 -1 5 -18 5 -16 0 -22 -2 -12 -5z"/>
<path d="M1268 793 c12 -2 32 -2 45 0 12 2 2 4 -23 4 -25 0 -35 -2 -22 -4z"/>
<path d="M540 785 c0 -5 5 -17 10 -25 5 -8 10 -10 10 -5 0 6 -5 17 -10 25 -5
8 -10 11 -10 5z"/>
<path d="M941 774 c0 -11 3 -14 6 -6 3 7 2 16 -1 19 -3 4 -6 -2 -5 -13z"/>
<path d="M1070 776 c0 -14 -4 -15 -20 -6 -14 8 -26 8 -40 0 -39 -21 -18 -45
30 -35 27 6 50 39 36 52 -3 4 -6 -1 -6 -11z m-43 -32 c-3 -3 -12 -4 -19 -1 -8
3 -5 6 6 6 11 1 17 -2 13 -5z"/>
<path d="M1596 783 c41 -8 64 -51 54 -98 -7 -33 2 -43 45 -49 49 -8 77 0 54
15 -8 5 -23 9 -34 9 -39 1 -45 12 -33 60 6 25 18 51 26 58 9 6 11 12 5 12 -14
0 -43 -34 -43 -51 0 -9 -5 -7 -12 6 -15 29 -39 45 -62 44 -20 -2 -20 -2 0 -6z"/>
<path d="M1293 773 c-13 -2 -23 -11 -23 -18 0 -10 6 -12 18 -8 19 7 49 34 35
32 -4 -1 -18 -4 -30 -6z"/>
<path d="M1371 754 c-15 -33 -15 -34 13 -34 19 0 22 4 18 25 -6 35 -17 39 -31
9z"/>
<path d="M1520 760 c-10 -20 3 -104 20 -123 9 -10 86 9 95 23 3 5 -13 8 -36 7
-37 -2 -43 1 -49 23 -20 74 -20 78 -3 83 17 4 17 5 1 6 -10 0 -22 -8 -28 -19z"/>
<path d="M1748 773 c7 -3 16 -2 19 1 4 3 -2 6 -13 5 -11 0 -14 -3 -6 -6z"/>
<path d="M1569 762 c-11 -5 -13 -14 -8 -32 4 -16 7 -19 8 -7 2 33 41 9 41 -26
0 -10 5 -15 10 -12 18 11 11 64 -9 75 -22 11 -20 11 -42 2z"/>
<path d="M1713 753 c-7 -18 -1 -24 33 -26 19 -1 29 3 32 14 4 22 -57 33 -65
12z"/>
<path d="M671 744 c0 -11 3 -14 6 -6 3 7 2 16 -1 19 -3 4 -6 -2 -5 -13z"/>
<path d="M1697 699 c-3 -12 1 -15 17 -12 17 4 18 3 6 -6 -13 -9 -13 -11 1 -11
14 0 59 31 59 41 0 2 -18 4 -39 4 -29 1 -41 -4 -44 -16z"/>
<path d="M1570 685 c0 -8 4 -15 10 -15 5 0 7 7 4 15 -4 8 -8 15 -10 15 -2 0
-4 -7 -4 -15z"/>
<path d="M863 613 c-7 -2 -13 -11 -13 -18 0 -7 -7 -16 -16 -19 -11 -4 -14 -13
-10 -29 4 -12 16 -68 26 -125 22 -116 40 -182 50 -182 31 0 43 107 15 130 -8
7 -15 27 -15 45 0 17 -3 35 -7 38 -8 8 -14 55 -16 120 -1 26 -2 47 -2 46 0 0
-6 -3 -12 -6z"/>
<path d="M147 593 c-11 -11 -8 -253 3 -253 6 0 10 50 10 130 0 72 -1 130 -3
130 -2 0 -7 -3 -10 -7z"/>
<path d="M725 580 c-3 -5 1 -10 9 -10 9 0 16 5 16 10 0 6 -4 10 -9 10 -6 0
-13 -4 -16 -10z"/>
<path d="M728 542 c7 -5 10 -16 6 -25 -3 -10 -1 -17 6 -17 17 0 8 43 -10 47
-11 4 -12 2 -2 -5z"/>
<path d="M1101 531 c-8 -5 -15 -35 -18 -78 -5 -65 -4 -70 16 -76 31 -8 29 -54
-4 -69 -34 -15 -34 -55 1 -68 41 -16 74 -12 95 13 l19 22 24 -29 c18 -21 29
-27 45 -21 13 4 21 13 19 23 -3 18 -53 30 -126 31 -43 1 -43 1 -38 34 3 17 8
60 11 93 5 56 4 62 -15 67 -23 6 -27 35 -5 43 8 4 12 10 9 15 -7 11 -15 11
-33 0z"/>
<path d="M660 520 c0 -5 5 -10 10 -10 6 0 10 5 10 10 0 6 -4 10 -10 10 -5 0
-10 -4 -10 -10z"/>
<path d="M590 474 l-23 -36 33 -31 c18 -18 29 -26 25 -18 -6 10 -4 13 6 9 55
-21 59 -20 96 17 19 19 36 34 37 33 4 -6 25 -106 31 -145 8 -51 27 -78 49 -70
23 9 20 36 -7 46 -19 7 -26 22 -37 77 -7 38 -13 88 -13 110 l0 42 -24 -28 -23
-28 -43 23 c-73 40 -82 40 -107 -1z m83 0 c18 -9 37 -21 44 -26 14 -11 6 -41
-8 -32 -6 3 -16 1 -23 -5 -18 -15 -77 -7 -87 12 -11 20 9 67 28 67 8 0 28 -7
46 -16z"/>
<path d="M1036 474 c-9 -24 -7 -77 4 -94 8 -12 10 -10 10 10 0 14 3 42 6 63 7
37 -8 53 -20 21z"/>
<path d="M1601 481 c-19 -12 -6 -41 18 -41 23 0 34 23 18 39 -13 13 -18 13
-36 2z"/>
<path d="M427 454 c-14 -15 -6 -62 14 -80 l21 -19 -7 40 c-9 48 -19 68 -28 59z"/>
<path d="M1300 445 c0 -8 5 -15 10 -15 6 0 10 7 10 15 0 8 -4 15 -10 15 -5 0
-10 -7 -10 -15z"/>
<path d="M1332 448 c-1 -7 -5 -30 -8 -50 -6 -34 -4 -39 20 -48 29 -11 34 -31
11 -50 -26 -21 -18 -47 15 -52 25 -4 30 -1 30 16 -1 49 -19 108 -36 120 -15
12 -16 16 -5 30 7 9 11 23 7 31 -7 18 -32 20 -34 3z"/>
<path d="M1826 451 c-4 -5 -2 -12 3 -15 5 -4 12 -2 15 3 4 5 2 12 -3 15 -5 4
-12 2 -15 -3z"/>
<path d="M1560 428 c1 -7 7 -24 15 -38 26 -46 21 -50 -70 -50 -50 0 -85 -4
-85 -10 0 -6 38 -10 94 -10 93 0 94 0 105 -27 8 -20 8 -38 1 -63 -16 -57 -13
-88 11 -95 34 -11 47 11 20 36 -16 15 -21 28 -17 43 18 63 17 102 -3 150 -26
59 -72 100 -71 64z"/>
<path d="M1267 413 c-4 -3 -7 -21 -7 -40 l0 -33 -50 0 c-27 0 -50 -4 -50 -10
0 -5 23 -10 50 -10 36 0 52 -4 56 -15 4 -8 14 -15 23 -15 15 0 16 7 7 65 -9
62 -15 73 -29 58z"/>
<path d="M1677 384 c-14 -15 -6 -34 14 -34 14 0 19 5 17 17 -3 18 -20 27 -31
17z"/>
<path d="M254 365 c-8 -19 3 -35 26 -35 22 0 33 23 17 39 -15 15 -37 14 -43
-4z"/>
<path d="M1782 368 c6 -18 28 -21 28 -4 0 9 -7 16 -16 16 -9 0 -14 -5 -12 -12z"/>
<path d="M221 357 c-1 -25 117 -257 134 -264 9 -3 21 0 29 6 11 9 6 19 -25 54
-22 23 -39 51 -39 62 -1 31 -34 85 -60 98 -13 7 -27 23 -31 37 -5 16 -7 19 -8
7z"/>
<path d="M22 328 c-8 -8 -12 -55 -12 -145 l0 -133 138 -1 c75 0 511 -11 967
-23 587 -16 836 -19 850 -12 l20 11 -20 2 c-11 1 -441 11 -955 23 -514 12
-946 24 -959 26 l-24 5 7 130 c4 71 5 129 3 129 -1 0 -8 -5 -15 -12z"/>
<path d="M1320 325 c0 -8 7 -15 15 -15 8 0 15 7 15 15 0 8 -7 15 -15 15 -8 0
-15 -7 -15 -15z"/>
<path d="M1815 330 c-4 -6 13 -10 44 -10 27 0 53 5 56 10 4 6 -13 10 -44 10
-27 0 -53 -4 -56 -10z"/>
<path d="M1710 265 c-15 -18 -5 -35 21 -35 24 0 37 29 18 41 -19 12 -25 11
-39 -6z"/>
<path d="M590 220 c0 -23 4 -30 20 -30 11 0 20 5 20 10 0 6 -9 19 -20 30 l-20
20 0 -30z"/>
<path d="M745 230 c-4 -6 -3 -16 3 -22 6 -6 12 -6 17 2 4 6 3 16 -3 22 -6 6
-12 6 -17 -2z"/>
<path d="M1030 220 c-6 -10 -7 -21 -3 -23 18 -11 223 -19 223 -9 0 14 -36 22
-100 22 -30 0 -67 7 -82 14 -25 13 -29 13 -38 -4z"/>
<path d="M1347 223 c-4 -3 -7 -15 -7 -25 0 -13 7 -18 25 -18 29 0 36 34 9 44
-19 7 -19 7 -27 -1z"/>
<path d="M1475 223 c-36 -4 -65 -24 -65 -45 0 -18 51 -6 76 17 29 27 62 32 83
13 11 -11 13 -10 9 2 -5 16 -36 20 -103 13z"/>
<path d="M665 210 c-9 -14 19 -55 49 -76 37 -23 124 -29 166 -11 l35 16 -31
-6 c-49 -8 -138 22 -167 57 -27 31 -42 37 -52 20z"/>
<path d="M1645 210 c-3 -6 1 -13 10 -16 19 -8 30 0 20 15 -8 14 -22 14 -30 1z"/>
<path d="M1290 184 c0 -14 5 -35 11 -46 10 -19 17 -20 77 -14 109 11 152 27
59 21 -73 -5 -80 -3 -103 20 -13 13 -24 29 -24 35 0 5 -4 10 -10 10 -5 0 -10
-12 -10 -26z"/>
<path d="M466 173 c9 -37 10 -38 35 -27 19 9 19 10 -11 32 l-31 23 7 -28z"/>
<path d="M1510 180 c0 -16 5 -21 23 -18 12 2 22 10 22 18 0 8 -10 16 -22 18
-18 3 -23 -2 -23 -18z"/>
</g>
</svg>
